%TF.GenerationSoftware,KiCad,Pcbnew,(6.0.8-1)-1*%
%TF.CreationDate,2022-11-08T13:41:34-07:00*%
%TF.ProjectId,AirU,41697255-2e6b-4696-9361-645f70636258,rev?*%
%TF.SameCoordinates,Original*%
%TF.FileFunction,Legend,Top*%
%TF.FilePolarity,Positive*%
%FSLAX46Y46*%
G04 Gerber Fmt 4.6, Leading zero omitted, Abs format (unit mm)*
G04 Created by KiCad (PCBNEW (6.0.8-1)-1) date 2022-11-08 13:41:34*
%MOMM*%
%LPD*%
G01*
G04 APERTURE LIST*
%ADD10C,0.150000*%
%ADD11C,0.254000*%
%ADD12C,0.101600*%
%ADD13C,0.120000*%
%ADD14C,0.198490*%
%ADD15C,0.100000*%
%ADD16C,0.250000*%
%ADD17C,0.200000*%
G04 APERTURE END LIST*
D10*
X161664285Y-57035535D02*
X161307142Y-57035535D01*
X161307142Y-56285535D01*
X162021428Y-57035535D02*
X161950000Y-56999821D01*
X161914285Y-56964107D01*
X161878571Y-56892678D01*
X161878571Y-56678392D01*
X161914285Y-56606964D01*
X161950000Y-56571250D01*
X162021428Y-56535535D01*
X162128571Y-56535535D01*
X162200000Y-56571250D01*
X162235714Y-56606964D01*
X162271428Y-56678392D01*
X162271428Y-56892678D01*
X162235714Y-56964107D01*
X162200000Y-56999821D01*
X162128571Y-57035535D01*
X162021428Y-57035535D01*
X163021428Y-57035535D02*
X162771428Y-56678392D01*
X162592857Y-57035535D02*
X162592857Y-56285535D01*
X162878571Y-56285535D01*
X162950000Y-56321250D01*
X162985714Y-56356964D01*
X163021428Y-56428392D01*
X163021428Y-56535535D01*
X162985714Y-56606964D01*
X162950000Y-56642678D01*
X162878571Y-56678392D01*
X162592857Y-56678392D01*
X163664285Y-57035535D02*
X163664285Y-56642678D01*
X163628571Y-56571250D01*
X163557142Y-56535535D01*
X163414285Y-56535535D01*
X163342857Y-56571250D01*
X163664285Y-56999821D02*
X163592857Y-57035535D01*
X163414285Y-57035535D01*
X163342857Y-56999821D01*
X163307142Y-56928392D01*
X163307142Y-56856964D01*
X163342857Y-56785535D01*
X163414285Y-56749821D01*
X163592857Y-56749821D01*
X163664285Y-56714107D01*
X163950000Y-56285535D02*
X164128571Y-57035535D01*
X164271428Y-56499821D01*
X164414285Y-57035535D01*
X164592857Y-56285535D01*
X164842857Y-56821250D02*
X165200000Y-56821250D01*
X164771428Y-57035535D02*
X165021428Y-56285535D01*
X165271428Y-57035535D01*
X165521428Y-57035535D02*
X165521428Y-56285535D01*
X165950000Y-57035535D01*
X165950000Y-56285535D01*
X166842857Y-56821250D02*
X167200000Y-56821250D01*
X166771428Y-57035535D02*
X167021428Y-56285535D01*
X167271428Y-57035535D01*
X167521428Y-57035535D02*
X167521428Y-56535535D01*
X167521428Y-56285535D02*
X167485714Y-56321250D01*
X167521428Y-56356964D01*
X167557142Y-56321250D01*
X167521428Y-56285535D01*
X167521428Y-56356964D01*
X167878571Y-57035535D02*
X167878571Y-56535535D01*
X167878571Y-56678392D02*
X167914285Y-56606964D01*
X167950000Y-56571250D01*
X168021428Y-56535535D01*
X168092857Y-56535535D01*
X168342857Y-56285535D02*
X168342857Y-56892678D01*
X168378571Y-56964107D01*
X168414285Y-56999821D01*
X168485714Y-57035535D01*
X168628571Y-57035535D01*
X168700000Y-56999821D01*
X168735714Y-56964107D01*
X168771428Y-56892678D01*
X168771428Y-56285535D01*
X169700000Y-57035535D02*
X169700000Y-56285535D01*
X169878571Y-56285535D01*
X169985714Y-56321250D01*
X170057142Y-56392678D01*
X170092857Y-56464107D01*
X170128571Y-56606964D01*
X170128571Y-56714107D01*
X170092857Y-56856964D01*
X170057142Y-56928392D01*
X169985714Y-56999821D01*
X169878571Y-57035535D01*
X169700000Y-57035535D01*
X170735714Y-56999821D02*
X170664285Y-57035535D01*
X170521428Y-57035535D01*
X170450000Y-56999821D01*
X170414285Y-56928392D01*
X170414285Y-56642678D01*
X170450000Y-56571250D01*
X170521428Y-56535535D01*
X170664285Y-56535535D01*
X170735714Y-56571250D01*
X170771428Y-56642678D01*
X170771428Y-56714107D01*
X170414285Y-56785535D01*
X171092857Y-57035535D02*
X171092857Y-56535535D01*
X171092857Y-56606964D02*
X171128571Y-56571250D01*
X171200000Y-56535535D01*
X171307142Y-56535535D01*
X171378571Y-56571250D01*
X171414285Y-56642678D01*
X171414285Y-57035535D01*
X171414285Y-56642678D02*
X171450000Y-56571250D01*
X171521428Y-56535535D01*
X171628571Y-56535535D01*
X171700000Y-56571250D01*
X171735714Y-56642678D01*
X171735714Y-57035535D01*
X172200000Y-57035535D02*
X172128571Y-56999821D01*
X172092857Y-56964107D01*
X172057142Y-56892678D01*
X172057142Y-56678392D01*
X172092857Y-56606964D01*
X172128571Y-56571250D01*
X172200000Y-56535535D01*
X172307142Y-56535535D01*
X172378571Y-56571250D01*
X172414285Y-56606964D01*
X172450000Y-56678392D01*
X172450000Y-56892678D01*
X172414285Y-56964107D01*
X172378571Y-56999821D01*
X172307142Y-57035535D01*
X172200000Y-57035535D01*
X173592857Y-56642678D02*
X173700000Y-56678392D01*
X173735714Y-56714107D01*
X173771428Y-56785535D01*
X173771428Y-56892678D01*
X173735714Y-56964107D01*
X173700000Y-56999821D01*
X173628571Y-57035535D01*
X173342857Y-57035535D01*
X173342857Y-56285535D01*
X173592857Y-56285535D01*
X173664285Y-56321250D01*
X173700000Y-56356964D01*
X173735714Y-56428392D01*
X173735714Y-56499821D01*
X173700000Y-56571250D01*
X173664285Y-56606964D01*
X173592857Y-56642678D01*
X173342857Y-56642678D01*
X174200000Y-57035535D02*
X174128571Y-56999821D01*
X174092857Y-56964107D01*
X174057142Y-56892678D01*
X174057142Y-56678392D01*
X174092857Y-56606964D01*
X174128571Y-56571250D01*
X174200000Y-56535535D01*
X174307142Y-56535535D01*
X174378571Y-56571250D01*
X174414285Y-56606964D01*
X174450000Y-56678392D01*
X174450000Y-56892678D01*
X174414285Y-56964107D01*
X174378571Y-56999821D01*
X174307142Y-57035535D01*
X174200000Y-57035535D01*
X175092857Y-57035535D02*
X175092857Y-56642678D01*
X175057142Y-56571250D01*
X174985714Y-56535535D01*
X174842857Y-56535535D01*
X174771428Y-56571250D01*
X175092857Y-56999821D02*
X175021428Y-57035535D01*
X174842857Y-57035535D01*
X174771428Y-56999821D01*
X174735714Y-56928392D01*
X174735714Y-56856964D01*
X174771428Y-56785535D01*
X174842857Y-56749821D01*
X175021428Y-56749821D01*
X175092857Y-56714107D01*
X175450000Y-57035535D02*
X175450000Y-56535535D01*
X175450000Y-56678392D02*
X175485714Y-56606964D01*
X175521428Y-56571250D01*
X175592857Y-56535535D01*
X175664285Y-56535535D01*
X176235714Y-57035535D02*
X176235714Y-56285535D01*
X176235714Y-56999821D02*
X176164285Y-57035535D01*
X176021428Y-57035535D01*
X175950000Y-56999821D01*
X175914285Y-56964107D01*
X175878571Y-56892678D01*
X175878571Y-56678392D01*
X175914285Y-56606964D01*
X175950000Y-56571250D01*
X176021428Y-56535535D01*
X176164285Y-56535535D01*
X176235714Y-56571250D01*
X177092857Y-56535535D02*
X177271428Y-57035535D01*
X177450000Y-56535535D01*
X178128571Y-57035535D02*
X177700000Y-57035535D01*
X177914285Y-57035535D02*
X177914285Y-56285535D01*
X177842857Y-56392678D01*
X177771428Y-56464107D01*
X177700000Y-56499821D01*
X165628571Y-58243035D02*
X165628571Y-57493035D01*
X165878571Y-58028750D01*
X166128571Y-57493035D01*
X166128571Y-58243035D01*
X166485714Y-58243035D02*
X166485714Y-57743035D01*
X166485714Y-57493035D02*
X166450000Y-57528750D01*
X166485714Y-57564464D01*
X166521428Y-57528750D01*
X166485714Y-57493035D01*
X166485714Y-57564464D01*
X167164285Y-58207321D02*
X167092857Y-58243035D01*
X166950000Y-58243035D01*
X166878571Y-58207321D01*
X166842857Y-58171607D01*
X166807142Y-58100178D01*
X166807142Y-57885892D01*
X166842857Y-57814464D01*
X166878571Y-57778750D01*
X166950000Y-57743035D01*
X167092857Y-57743035D01*
X167164285Y-57778750D01*
X167485714Y-58243035D02*
X167485714Y-57493035D01*
X167807142Y-58243035D02*
X167807142Y-57850178D01*
X167771428Y-57778750D01*
X167700000Y-57743035D01*
X167592857Y-57743035D01*
X167521428Y-57778750D01*
X167485714Y-57814464D01*
X168485714Y-58243035D02*
X168485714Y-57850178D01*
X168450000Y-57778750D01*
X168378571Y-57743035D01*
X168235714Y-57743035D01*
X168164285Y-57778750D01*
X168485714Y-58207321D02*
X168414285Y-58243035D01*
X168235714Y-58243035D01*
X168164285Y-58207321D01*
X168128571Y-58135892D01*
X168128571Y-58064464D01*
X168164285Y-57993035D01*
X168235714Y-57957321D01*
X168414285Y-57957321D01*
X168485714Y-57921607D01*
X169128571Y-58207321D02*
X169057142Y-58243035D01*
X168914285Y-58243035D01*
X168842857Y-58207321D01*
X168807142Y-58135892D01*
X168807142Y-57850178D01*
X168842857Y-57778750D01*
X168914285Y-57743035D01*
X169057142Y-57743035D01*
X169128571Y-57778750D01*
X169164285Y-57850178D01*
X169164285Y-57921607D01*
X168807142Y-57993035D01*
X169592857Y-58243035D02*
X169521428Y-58207321D01*
X169485714Y-58135892D01*
X169485714Y-57493035D01*
X170450000Y-58243035D02*
X170450000Y-57493035D01*
X170878571Y-58243035D02*
X170557142Y-57814464D01*
X170878571Y-57493035D02*
X170450000Y-57921607D01*
X171485714Y-58207321D02*
X171414285Y-58243035D01*
X171271428Y-58243035D01*
X171200000Y-58207321D01*
X171164285Y-58135892D01*
X171164285Y-57850178D01*
X171200000Y-57778750D01*
X171271428Y-57743035D01*
X171414285Y-57743035D01*
X171485714Y-57778750D01*
X171521428Y-57850178D01*
X171521428Y-57921607D01*
X171164285Y-57993035D01*
X171771428Y-57743035D02*
X171950000Y-58243035D01*
X172128571Y-57743035D02*
X171950000Y-58243035D01*
X171878571Y-58421607D01*
X171842857Y-58457321D01*
X171771428Y-58493035D01*
X172378571Y-58207321D02*
X172450000Y-58243035D01*
X172592857Y-58243035D01*
X172664285Y-58207321D01*
X172700000Y-58135892D01*
X172700000Y-58100178D01*
X172664285Y-58028750D01*
X172592857Y-57993035D01*
X172485714Y-57993035D01*
X172414285Y-57957321D01*
X172378571Y-57885892D01*
X172378571Y-57850178D01*
X172414285Y-57778750D01*
X172485714Y-57743035D01*
X172592857Y-57743035D01*
X172664285Y-57778750D01*
X173307142Y-58207321D02*
X173235714Y-58243035D01*
X173092857Y-58243035D01*
X173021428Y-58207321D01*
X172985714Y-58135892D01*
X172985714Y-57850178D01*
X173021428Y-57778750D01*
X173092857Y-57743035D01*
X173235714Y-57743035D01*
X173307142Y-57778750D01*
X173342857Y-57850178D01*
X173342857Y-57921607D01*
X172985714Y-57993035D01*
X173664285Y-58243035D02*
X173664285Y-57743035D01*
X173664285Y-57885892D02*
X173700000Y-57814464D01*
X173735714Y-57778750D01*
X173807142Y-57743035D01*
X173878571Y-57743035D01*
%TO.C,R5*%
X165908333Y-44982380D02*
X165575000Y-44506190D01*
X165336904Y-44982380D02*
X165336904Y-43982380D01*
X165717857Y-43982380D01*
X165813095Y-44030000D01*
X165860714Y-44077619D01*
X165908333Y-44172857D01*
X165908333Y-44315714D01*
X165860714Y-44410952D01*
X165813095Y-44458571D01*
X165717857Y-44506190D01*
X165336904Y-44506190D01*
X166813095Y-43982380D02*
X166336904Y-43982380D01*
X166289285Y-44458571D01*
X166336904Y-44410952D01*
X166432142Y-44363333D01*
X166670238Y-44363333D01*
X166765476Y-44410952D01*
X166813095Y-44458571D01*
X166860714Y-44553809D01*
X166860714Y-44791904D01*
X166813095Y-44887142D01*
X166765476Y-44934761D01*
X166670238Y-44982380D01*
X166432142Y-44982380D01*
X166336904Y-44934761D01*
X166289285Y-44887142D01*
%TO.C,R14*%
X134152380Y-52142857D02*
X133676190Y-52476190D01*
X134152380Y-52714285D02*
X133152380Y-52714285D01*
X133152380Y-52333333D01*
X133200000Y-52238095D01*
X133247619Y-52190476D01*
X133342857Y-52142857D01*
X133485714Y-52142857D01*
X133580952Y-52190476D01*
X133628571Y-52238095D01*
X133676190Y-52333333D01*
X133676190Y-52714285D01*
X134152380Y-51190476D02*
X134152380Y-51761904D01*
X134152380Y-51476190D02*
X133152380Y-51476190D01*
X133295238Y-51571428D01*
X133390476Y-51666666D01*
X133438095Y-51761904D01*
X133485714Y-50333333D02*
X134152380Y-50333333D01*
X133104761Y-50571428D02*
X133819047Y-50809523D01*
X133819047Y-50190476D01*
%TO.C,J6*%
X170666666Y-53882380D02*
X170666666Y-54596666D01*
X170619047Y-54739523D01*
X170523809Y-54834761D01*
X170380952Y-54882380D01*
X170285714Y-54882380D01*
X171571428Y-53882380D02*
X171380952Y-53882380D01*
X171285714Y-53930000D01*
X171238095Y-53977619D01*
X171142857Y-54120476D01*
X171095238Y-54310952D01*
X171095238Y-54691904D01*
X171142857Y-54787142D01*
X171190476Y-54834761D01*
X171285714Y-54882380D01*
X171476190Y-54882380D01*
X171571428Y-54834761D01*
X171619047Y-54787142D01*
X171666666Y-54691904D01*
X171666666Y-54453809D01*
X171619047Y-54358571D01*
X171571428Y-54310952D01*
X171476190Y-54263333D01*
X171285714Y-54263333D01*
X171190476Y-54310952D01*
X171142857Y-54358571D01*
X171095238Y-54453809D01*
%TO.C,U1*%
X145438095Y-48152380D02*
X145438095Y-48961904D01*
X145485714Y-49057142D01*
X145533333Y-49104761D01*
X145628571Y-49152380D01*
X145819047Y-49152380D01*
X145914285Y-49104761D01*
X145961904Y-49057142D01*
X146009523Y-48961904D01*
X146009523Y-48152380D01*
X147009523Y-49152380D02*
X146438095Y-49152380D01*
X146723809Y-49152380D02*
X146723809Y-48152380D01*
X146628571Y-48295238D01*
X146533333Y-48390476D01*
X146438095Y-48438095D01*
%TO.C,R8*%
X180152380Y-51066666D02*
X179676190Y-51400000D01*
X180152380Y-51638095D02*
X179152380Y-51638095D01*
X179152380Y-51257142D01*
X179200000Y-51161904D01*
X179247619Y-51114285D01*
X179342857Y-51066666D01*
X179485714Y-51066666D01*
X179580952Y-51114285D01*
X179628571Y-51161904D01*
X179676190Y-51257142D01*
X179676190Y-51638095D01*
X179580952Y-50495238D02*
X179533333Y-50590476D01*
X179485714Y-50638095D01*
X179390476Y-50685714D01*
X179342857Y-50685714D01*
X179247619Y-50638095D01*
X179200000Y-50590476D01*
X179152380Y-50495238D01*
X179152380Y-50304761D01*
X179200000Y-50209523D01*
X179247619Y-50161904D01*
X179342857Y-50114285D01*
X179390476Y-50114285D01*
X179485714Y-50161904D01*
X179533333Y-50209523D01*
X179580952Y-50304761D01*
X179580952Y-50495238D01*
X179628571Y-50590476D01*
X179676190Y-50638095D01*
X179771428Y-50685714D01*
X179961904Y-50685714D01*
X180057142Y-50638095D01*
X180104761Y-50590476D01*
X180152380Y-50495238D01*
X180152380Y-50304761D01*
X180104761Y-50209523D01*
X180057142Y-50161904D01*
X179961904Y-50114285D01*
X179771428Y-50114285D01*
X179676190Y-50161904D01*
X179628571Y-50209523D01*
X179580952Y-50304761D01*
%TO.C,R9*%
X182882380Y-51091666D02*
X182406190Y-51425000D01*
X182882380Y-51663095D02*
X181882380Y-51663095D01*
X181882380Y-51282142D01*
X181930000Y-51186904D01*
X181977619Y-51139285D01*
X182072857Y-51091666D01*
X182215714Y-51091666D01*
X182310952Y-51139285D01*
X182358571Y-51186904D01*
X182406190Y-51282142D01*
X182406190Y-51663095D01*
X182882380Y-50615476D02*
X182882380Y-50425000D01*
X182834761Y-50329761D01*
X182787142Y-50282142D01*
X182644285Y-50186904D01*
X182453809Y-50139285D01*
X182072857Y-50139285D01*
X181977619Y-50186904D01*
X181930000Y-50234523D01*
X181882380Y-50329761D01*
X181882380Y-50520238D01*
X181930000Y-50615476D01*
X181977619Y-50663095D01*
X182072857Y-50710714D01*
X182310952Y-50710714D01*
X182406190Y-50663095D01*
X182453809Y-50615476D01*
X182501428Y-50520238D01*
X182501428Y-50329761D01*
X182453809Y-50234523D01*
X182406190Y-50186904D01*
X182310952Y-50139285D01*
%TO.C,R3*%
X165908333Y-39182380D02*
X165575000Y-38706190D01*
X165336904Y-39182380D02*
X165336904Y-38182380D01*
X165717857Y-38182380D01*
X165813095Y-38230000D01*
X165860714Y-38277619D01*
X165908333Y-38372857D01*
X165908333Y-38515714D01*
X165860714Y-38610952D01*
X165813095Y-38658571D01*
X165717857Y-38706190D01*
X165336904Y-38706190D01*
X166241666Y-38182380D02*
X166860714Y-38182380D01*
X166527380Y-38563333D01*
X166670238Y-38563333D01*
X166765476Y-38610952D01*
X166813095Y-38658571D01*
X166860714Y-38753809D01*
X166860714Y-38991904D01*
X166813095Y-39087142D01*
X166765476Y-39134761D01*
X166670238Y-39182380D01*
X166384523Y-39182380D01*
X166289285Y-39134761D01*
X166241666Y-39087142D01*
%TO.C,R17*%
X147822380Y-35542857D02*
X147346190Y-35876190D01*
X147822380Y-36114285D02*
X146822380Y-36114285D01*
X146822380Y-35733333D01*
X146870000Y-35638095D01*
X146917619Y-35590476D01*
X147012857Y-35542857D01*
X147155714Y-35542857D01*
X147250952Y-35590476D01*
X147298571Y-35638095D01*
X147346190Y-35733333D01*
X147346190Y-36114285D01*
X147822380Y-34590476D02*
X147822380Y-35161904D01*
X147822380Y-34876190D02*
X146822380Y-34876190D01*
X146965238Y-34971428D01*
X147060476Y-35066666D01*
X147108095Y-35161904D01*
X146822380Y-34257142D02*
X146822380Y-33590476D01*
X147822380Y-34019047D01*
%TO.C,R18*%
X151622380Y-35542857D02*
X151146190Y-35876190D01*
X151622380Y-36114285D02*
X150622380Y-36114285D01*
X150622380Y-35733333D01*
X150670000Y-35638095D01*
X150717619Y-35590476D01*
X150812857Y-35542857D01*
X150955714Y-35542857D01*
X151050952Y-35590476D01*
X151098571Y-35638095D01*
X151146190Y-35733333D01*
X151146190Y-36114285D01*
X151622380Y-34590476D02*
X151622380Y-35161904D01*
X151622380Y-34876190D02*
X150622380Y-34876190D01*
X150765238Y-34971428D01*
X150860476Y-35066666D01*
X150908095Y-35161904D01*
X151050952Y-34019047D02*
X151003333Y-34114285D01*
X150955714Y-34161904D01*
X150860476Y-34209523D01*
X150812857Y-34209523D01*
X150717619Y-34161904D01*
X150670000Y-34114285D01*
X150622380Y-34019047D01*
X150622380Y-33828571D01*
X150670000Y-33733333D01*
X150717619Y-33685714D01*
X150812857Y-33638095D01*
X150860476Y-33638095D01*
X150955714Y-33685714D01*
X151003333Y-33733333D01*
X151050952Y-33828571D01*
X151050952Y-34019047D01*
X151098571Y-34114285D01*
X151146190Y-34161904D01*
X151241428Y-34209523D01*
X151431904Y-34209523D01*
X151527142Y-34161904D01*
X151574761Y-34114285D01*
X151622380Y-34019047D01*
X151622380Y-33828571D01*
X151574761Y-33733333D01*
X151527142Y-33685714D01*
X151431904Y-33638095D01*
X151241428Y-33638095D01*
X151146190Y-33685714D01*
X151098571Y-33733333D01*
X151050952Y-33828571D01*
%TO.C,REF\u002A\u002A*%
X193266666Y-54202380D02*
X192933333Y-53726190D01*
X192695238Y-54202380D02*
X192695238Y-53202380D01*
X193076190Y-53202380D01*
X193171428Y-53250000D01*
X193219047Y-53297619D01*
X193266666Y-53392857D01*
X193266666Y-53535714D01*
X193219047Y-53630952D01*
X193171428Y-53678571D01*
X193076190Y-53726190D01*
X192695238Y-53726190D01*
X193695238Y-53678571D02*
X194028571Y-53678571D01*
X194171428Y-54202380D02*
X193695238Y-54202380D01*
X193695238Y-53202380D01*
X194171428Y-53202380D01*
X194933333Y-53678571D02*
X194600000Y-53678571D01*
X194600000Y-54202380D02*
X194600000Y-53202380D01*
X195076190Y-53202380D01*
X195600000Y-53202380D02*
X195600000Y-53440476D01*
X195361904Y-53345238D02*
X195600000Y-53440476D01*
X195838095Y-53345238D01*
X195457142Y-53630952D02*
X195600000Y-53440476D01*
X195742857Y-53630952D01*
X196361904Y-53202380D02*
X196361904Y-53440476D01*
X196123809Y-53345238D02*
X196361904Y-53440476D01*
X196600000Y-53345238D01*
X196219047Y-53630952D02*
X196361904Y-53440476D01*
X196504761Y-53630952D01*
D11*
%TO.C,C4*%
X161053571Y-59911666D02*
X161114047Y-59972142D01*
X161174523Y-60153571D01*
X161174523Y-60274523D01*
X161114047Y-60455952D01*
X160993095Y-60576904D01*
X160872142Y-60637380D01*
X160630238Y-60697857D01*
X160448809Y-60697857D01*
X160206904Y-60637380D01*
X160085952Y-60576904D01*
X159965000Y-60455952D01*
X159904523Y-60274523D01*
X159904523Y-60153571D01*
X159965000Y-59972142D01*
X160025476Y-59911666D01*
X160327857Y-58823095D02*
X161174523Y-58823095D01*
X159844047Y-59125476D02*
X160751190Y-59427857D01*
X160751190Y-58641666D01*
D10*
%TO.C,U5*%
X132252380Y-40461904D02*
X133061904Y-40461904D01*
X133157142Y-40414285D01*
X133204761Y-40366666D01*
X133252380Y-40271428D01*
X133252380Y-40080952D01*
X133204761Y-39985714D01*
X133157142Y-39938095D01*
X133061904Y-39890476D01*
X132252380Y-39890476D01*
X132252380Y-38938095D02*
X132252380Y-39414285D01*
X132728571Y-39461904D01*
X132680952Y-39414285D01*
X132633333Y-39319047D01*
X132633333Y-39080952D01*
X132680952Y-38985714D01*
X132728571Y-38938095D01*
X132823809Y-38890476D01*
X133061904Y-38890476D01*
X133157142Y-38938095D01*
X133204761Y-38985714D01*
X133252380Y-39080952D01*
X133252380Y-39319047D01*
X133204761Y-39414285D01*
X133157142Y-39461904D01*
%TO.C,J4*%
X185666666Y-57452380D02*
X185666666Y-58166666D01*
X185619047Y-58309523D01*
X185523809Y-58404761D01*
X185380952Y-58452380D01*
X185285714Y-58452380D01*
X186571428Y-57785714D02*
X186571428Y-58452380D01*
X186333333Y-57404761D02*
X186095238Y-58119047D01*
X186714285Y-58119047D01*
%TO.C,R15*%
X132257142Y-45682380D02*
X131923809Y-45206190D01*
X131685714Y-45682380D02*
X131685714Y-44682380D01*
X132066666Y-44682380D01*
X132161904Y-44730000D01*
X132209523Y-44777619D01*
X132257142Y-44872857D01*
X132257142Y-45015714D01*
X132209523Y-45110952D01*
X132161904Y-45158571D01*
X132066666Y-45206190D01*
X131685714Y-45206190D01*
X133209523Y-45682380D02*
X132638095Y-45682380D01*
X132923809Y-45682380D02*
X132923809Y-44682380D01*
X132828571Y-44825238D01*
X132733333Y-44920476D01*
X132638095Y-44968095D01*
X134114285Y-44682380D02*
X133638095Y-44682380D01*
X133590476Y-45158571D01*
X133638095Y-45110952D01*
X133733333Y-45063333D01*
X133971428Y-45063333D01*
X134066666Y-45110952D01*
X134114285Y-45158571D01*
X134161904Y-45253809D01*
X134161904Y-45491904D01*
X134114285Y-45587142D01*
X134066666Y-45634761D01*
X133971428Y-45682380D01*
X133733333Y-45682380D01*
X133638095Y-45634761D01*
X133590476Y-45587142D01*
%TO.C,D1*%
X124452380Y-41038095D02*
X123452380Y-41038095D01*
X123452380Y-40800000D01*
X123500000Y-40657142D01*
X123595238Y-40561904D01*
X123690476Y-40514285D01*
X123880952Y-40466666D01*
X124023809Y-40466666D01*
X124214285Y-40514285D01*
X124309523Y-40561904D01*
X124404761Y-40657142D01*
X124452380Y-40800000D01*
X124452380Y-41038095D01*
X124452380Y-39514285D02*
X124452380Y-40085714D01*
X124452380Y-39800000D02*
X123452380Y-39800000D01*
X123595238Y-39895238D01*
X123690476Y-39990476D01*
X123738095Y-40085714D01*
D11*
%TO.C,IC3*%
X132460238Y-58174523D02*
X132460238Y-56904523D01*
X133790714Y-58053571D02*
X133730238Y-58114047D01*
X133548809Y-58174523D01*
X133427857Y-58174523D01*
X133246428Y-58114047D01*
X133125476Y-57993095D01*
X133065000Y-57872142D01*
X133004523Y-57630238D01*
X133004523Y-57448809D01*
X133065000Y-57206904D01*
X133125476Y-57085952D01*
X133246428Y-56965000D01*
X133427857Y-56904523D01*
X133548809Y-56904523D01*
X133730238Y-56965000D01*
X133790714Y-57025476D01*
X134214047Y-56904523D02*
X135000238Y-56904523D01*
X134576904Y-57388333D01*
X134758333Y-57388333D01*
X134879285Y-57448809D01*
X134939761Y-57509285D01*
X135000238Y-57630238D01*
X135000238Y-57932619D01*
X134939761Y-58053571D01*
X134879285Y-58114047D01*
X134758333Y-58174523D01*
X134395476Y-58174523D01*
X134274523Y-58114047D01*
X134214047Y-58053571D01*
%TO.C,C1*%
X165453571Y-27111666D02*
X165514047Y-27172142D01*
X165574523Y-27353571D01*
X165574523Y-27474523D01*
X165514047Y-27655952D01*
X165393095Y-27776904D01*
X165272142Y-27837380D01*
X165030238Y-27897857D01*
X164848809Y-27897857D01*
X164606904Y-27837380D01*
X164485952Y-27776904D01*
X164365000Y-27655952D01*
X164304523Y-27474523D01*
X164304523Y-27353571D01*
X164365000Y-27172142D01*
X164425476Y-27111666D01*
X165574523Y-25902142D02*
X165574523Y-26627857D01*
X165574523Y-26265000D02*
X164304523Y-26265000D01*
X164485952Y-26385952D01*
X164606904Y-26506904D01*
X164667380Y-26627857D01*
D12*
%TO.C,U4*%
X137909790Y-31785061D02*
X137909790Y-32730909D01*
X137965428Y-32842185D01*
X138021066Y-32897823D01*
X138132342Y-32953461D01*
X138354895Y-32953461D01*
X138466171Y-32897823D01*
X138521809Y-32842185D01*
X138577447Y-32730909D01*
X138577447Y-31785061D01*
X139634571Y-32174528D02*
X139634571Y-32953461D01*
X139356380Y-31729423D02*
X139078190Y-32563995D01*
X139801485Y-32563995D01*
D10*
%TO.C,R13*%
X134182380Y-35042857D02*
X133706190Y-35376190D01*
X134182380Y-35614285D02*
X133182380Y-35614285D01*
X133182380Y-35233333D01*
X133230000Y-35138095D01*
X133277619Y-35090476D01*
X133372857Y-35042857D01*
X133515714Y-35042857D01*
X133610952Y-35090476D01*
X133658571Y-35138095D01*
X133706190Y-35233333D01*
X133706190Y-35614285D01*
X134182380Y-34090476D02*
X134182380Y-34661904D01*
X134182380Y-34376190D02*
X133182380Y-34376190D01*
X133325238Y-34471428D01*
X133420476Y-34566666D01*
X133468095Y-34661904D01*
X133182380Y-33757142D02*
X133182380Y-33138095D01*
X133563333Y-33471428D01*
X133563333Y-33328571D01*
X133610952Y-33233333D01*
X133658571Y-33185714D01*
X133753809Y-33138095D01*
X133991904Y-33138095D01*
X134087142Y-33185714D01*
X134134761Y-33233333D01*
X134182380Y-33328571D01*
X134182380Y-33614285D01*
X134134761Y-33709523D01*
X134087142Y-33757142D01*
%TO.C,J3*%
X159766666Y-38822380D02*
X159766666Y-39536666D01*
X159719047Y-39679523D01*
X159623809Y-39774761D01*
X159480952Y-39822380D01*
X159385714Y-39822380D01*
X160147619Y-38822380D02*
X160766666Y-38822380D01*
X160433333Y-39203333D01*
X160576190Y-39203333D01*
X160671428Y-39250952D01*
X160719047Y-39298571D01*
X160766666Y-39393809D01*
X160766666Y-39631904D01*
X160719047Y-39727142D01*
X160671428Y-39774761D01*
X160576190Y-39822380D01*
X160290476Y-39822380D01*
X160195238Y-39774761D01*
X160147619Y-39727142D01*
%TO.C,R2*%
X165908333Y-36282380D02*
X165575000Y-35806190D01*
X165336904Y-36282380D02*
X165336904Y-35282380D01*
X165717857Y-35282380D01*
X165813095Y-35330000D01*
X165860714Y-35377619D01*
X165908333Y-35472857D01*
X165908333Y-35615714D01*
X165860714Y-35710952D01*
X165813095Y-35758571D01*
X165717857Y-35806190D01*
X165336904Y-35806190D01*
X166289285Y-35377619D02*
X166336904Y-35330000D01*
X166432142Y-35282380D01*
X166670238Y-35282380D01*
X166765476Y-35330000D01*
X166813095Y-35377619D01*
X166860714Y-35472857D01*
X166860714Y-35568095D01*
X166813095Y-35710952D01*
X166241666Y-36282380D01*
X166860714Y-36282380D01*
%TO.C,J5*%
X135766666Y-24322380D02*
X135766666Y-25036666D01*
X135719047Y-25179523D01*
X135623809Y-25274761D01*
X135480952Y-25322380D01*
X135385714Y-25322380D01*
X136719047Y-24322380D02*
X136242857Y-24322380D01*
X136195238Y-24798571D01*
X136242857Y-24750952D01*
X136338095Y-24703333D01*
X136576190Y-24703333D01*
X136671428Y-24750952D01*
X136719047Y-24798571D01*
X136766666Y-24893809D01*
X136766666Y-25131904D01*
X136719047Y-25227142D01*
X136671428Y-25274761D01*
X136576190Y-25322380D01*
X136338095Y-25322380D01*
X136242857Y-25274761D01*
X136195238Y-25227142D01*
%TO.C,R7*%
X177082380Y-51091666D02*
X176606190Y-51425000D01*
X177082380Y-51663095D02*
X176082380Y-51663095D01*
X176082380Y-51282142D01*
X176130000Y-51186904D01*
X176177619Y-51139285D01*
X176272857Y-51091666D01*
X176415714Y-51091666D01*
X176510952Y-51139285D01*
X176558571Y-51186904D01*
X176606190Y-51282142D01*
X176606190Y-51663095D01*
X176082380Y-50758333D02*
X176082380Y-50091666D01*
X177082380Y-50520238D01*
D11*
%TO.C,C2*%
X134153571Y-55111666D02*
X134214047Y-55172142D01*
X134274523Y-55353571D01*
X134274523Y-55474523D01*
X134214047Y-55655952D01*
X134093095Y-55776904D01*
X133972142Y-55837380D01*
X133730238Y-55897857D01*
X133548809Y-55897857D01*
X133306904Y-55837380D01*
X133185952Y-55776904D01*
X133065000Y-55655952D01*
X133004523Y-55474523D01*
X133004523Y-55353571D01*
X133065000Y-55172142D01*
X133125476Y-55111666D01*
X133125476Y-54627857D02*
X133065000Y-54567380D01*
X133004523Y-54446428D01*
X133004523Y-54144047D01*
X133065000Y-54023095D01*
X133125476Y-53962619D01*
X133246428Y-53902142D01*
X133367380Y-53902142D01*
X133548809Y-53962619D01*
X134274523Y-54688333D01*
X134274523Y-53902142D01*
D10*
%TO.C,U3*%
X184838095Y-33852380D02*
X184838095Y-34661904D01*
X184885714Y-34757142D01*
X184933333Y-34804761D01*
X185028571Y-34852380D01*
X185219047Y-34852380D01*
X185314285Y-34804761D01*
X185361904Y-34757142D01*
X185409523Y-34661904D01*
X185409523Y-33852380D01*
X185790476Y-33852380D02*
X186409523Y-33852380D01*
X186076190Y-34233333D01*
X186219047Y-34233333D01*
X186314285Y-34280952D01*
X186361904Y-34328571D01*
X186409523Y-34423809D01*
X186409523Y-34661904D01*
X186361904Y-34757142D01*
X186314285Y-34804761D01*
X186219047Y-34852380D01*
X185933333Y-34852380D01*
X185838095Y-34804761D01*
X185790476Y-34757142D01*
%TO.C,R6*%
X165908333Y-47882380D02*
X165575000Y-47406190D01*
X165336904Y-47882380D02*
X165336904Y-46882380D01*
X165717857Y-46882380D01*
X165813095Y-46930000D01*
X165860714Y-46977619D01*
X165908333Y-47072857D01*
X165908333Y-47215714D01*
X165860714Y-47310952D01*
X165813095Y-47358571D01*
X165717857Y-47406190D01*
X165336904Y-47406190D01*
X166765476Y-46882380D02*
X166575000Y-46882380D01*
X166479761Y-46930000D01*
X166432142Y-46977619D01*
X166336904Y-47120476D01*
X166289285Y-47310952D01*
X166289285Y-47691904D01*
X166336904Y-47787142D01*
X166384523Y-47834761D01*
X166479761Y-47882380D01*
X166670238Y-47882380D01*
X166765476Y-47834761D01*
X166813095Y-47787142D01*
X166860714Y-47691904D01*
X166860714Y-47453809D01*
X166813095Y-47358571D01*
X166765476Y-47310952D01*
X166670238Y-47263333D01*
X166479761Y-47263333D01*
X166384523Y-47310952D01*
X166336904Y-47358571D01*
X166289285Y-47453809D01*
%TO.C,R10*%
X185782380Y-51567857D02*
X185306190Y-51901190D01*
X185782380Y-52139285D02*
X184782380Y-52139285D01*
X184782380Y-51758333D01*
X184830000Y-51663095D01*
X184877619Y-51615476D01*
X184972857Y-51567857D01*
X185115714Y-51567857D01*
X185210952Y-51615476D01*
X185258571Y-51663095D01*
X185306190Y-51758333D01*
X185306190Y-52139285D01*
X185782380Y-50615476D02*
X185782380Y-51186904D01*
X185782380Y-50901190D02*
X184782380Y-50901190D01*
X184925238Y-50996428D01*
X185020476Y-51091666D01*
X185068095Y-51186904D01*
X184782380Y-49996428D02*
X184782380Y-49901190D01*
X184830000Y-49805952D01*
X184877619Y-49758333D01*
X184972857Y-49710714D01*
X185163333Y-49663095D01*
X185401428Y-49663095D01*
X185591904Y-49710714D01*
X185687142Y-49758333D01*
X185734761Y-49805952D01*
X185782380Y-49901190D01*
X185782380Y-49996428D01*
X185734761Y-50091666D01*
X185687142Y-50139285D01*
X185591904Y-50186904D01*
X185401428Y-50234523D01*
X185163333Y-50234523D01*
X184972857Y-50186904D01*
X184877619Y-50139285D01*
X184830000Y-50091666D01*
X184782380Y-49996428D01*
%TO.C,U2*%
X129752380Y-35461904D02*
X130561904Y-35461904D01*
X130657142Y-35414285D01*
X130704761Y-35366666D01*
X130752380Y-35271428D01*
X130752380Y-35080952D01*
X130704761Y-34985714D01*
X130657142Y-34938095D01*
X130561904Y-34890476D01*
X129752380Y-34890476D01*
X129847619Y-34461904D02*
X129800000Y-34414285D01*
X129752380Y-34319047D01*
X129752380Y-34080952D01*
X129800000Y-33985714D01*
X129847619Y-33938095D01*
X129942857Y-33890476D01*
X130038095Y-33890476D01*
X130180952Y-33938095D01*
X130752380Y-34509523D01*
X130752380Y-33890476D01*
%TO.C,R12*%
X139457142Y-26752380D02*
X139123809Y-26276190D01*
X138885714Y-26752380D02*
X138885714Y-25752380D01*
X139266666Y-25752380D01*
X139361904Y-25800000D01*
X139409523Y-25847619D01*
X139457142Y-25942857D01*
X139457142Y-26085714D01*
X139409523Y-26180952D01*
X139361904Y-26228571D01*
X139266666Y-26276190D01*
X138885714Y-26276190D01*
X140409523Y-26752380D02*
X139838095Y-26752380D01*
X140123809Y-26752380D02*
X140123809Y-25752380D01*
X140028571Y-25895238D01*
X139933333Y-25990476D01*
X139838095Y-26038095D01*
X140790476Y-25847619D02*
X140838095Y-25800000D01*
X140933333Y-25752380D01*
X141171428Y-25752380D01*
X141266666Y-25800000D01*
X141314285Y-25847619D01*
X141361904Y-25942857D01*
X141361904Y-26038095D01*
X141314285Y-26180952D01*
X140742857Y-26752380D01*
X141361904Y-26752380D01*
D11*
%TO.C,J2*%
X135476666Y-22804523D02*
X135476666Y-23711666D01*
X135416190Y-23893095D01*
X135295238Y-24014047D01*
X135113809Y-24074523D01*
X134992857Y-24074523D01*
X136020952Y-22925476D02*
X136081428Y-22865000D01*
X136202380Y-22804523D01*
X136504761Y-22804523D01*
X136625714Y-22865000D01*
X136686190Y-22925476D01*
X136746666Y-23046428D01*
X136746666Y-23167380D01*
X136686190Y-23348809D01*
X135960476Y-24074523D01*
X136746666Y-24074523D01*
%TO.C,J1*%
X161076666Y-22604523D02*
X161076666Y-23511666D01*
X161016190Y-23693095D01*
X160895238Y-23814047D01*
X160713809Y-23874523D01*
X160592857Y-23874523D01*
X162346666Y-23874523D02*
X161620952Y-23874523D01*
X161983809Y-23874523D02*
X161983809Y-22604523D01*
X161862857Y-22785952D01*
X161741904Y-22906904D01*
X161620952Y-22967380D01*
D10*
%TO.C,R4*%
X165908333Y-42082380D02*
X165575000Y-41606190D01*
X165336904Y-42082380D02*
X165336904Y-41082380D01*
X165717857Y-41082380D01*
X165813095Y-41130000D01*
X165860714Y-41177619D01*
X165908333Y-41272857D01*
X165908333Y-41415714D01*
X165860714Y-41510952D01*
X165813095Y-41558571D01*
X165717857Y-41606190D01*
X165336904Y-41606190D01*
X166765476Y-41415714D02*
X166765476Y-42082380D01*
X166527380Y-41034761D02*
X166289285Y-41749047D01*
X166908333Y-41749047D01*
D11*
%TO.C,C5*%
X169553571Y-27111666D02*
X169614047Y-27172142D01*
X169674523Y-27353571D01*
X169674523Y-27474523D01*
X169614047Y-27655952D01*
X169493095Y-27776904D01*
X169372142Y-27837380D01*
X169130238Y-27897857D01*
X168948809Y-27897857D01*
X168706904Y-27837380D01*
X168585952Y-27776904D01*
X168465000Y-27655952D01*
X168404523Y-27474523D01*
X168404523Y-27353571D01*
X168465000Y-27172142D01*
X168525476Y-27111666D01*
X168404523Y-25962619D02*
X168404523Y-26567380D01*
X169009285Y-26627857D01*
X168948809Y-26567380D01*
X168888333Y-26446428D01*
X168888333Y-26144047D01*
X168948809Y-26023095D01*
X169009285Y-25962619D01*
X169130238Y-25902142D01*
X169432619Y-25902142D01*
X169553571Y-25962619D01*
X169614047Y-26023095D01*
X169674523Y-26144047D01*
X169674523Y-26446428D01*
X169614047Y-26567380D01*
X169553571Y-26627857D01*
D10*
%TO.C,R1*%
X165908333Y-33382380D02*
X165575000Y-32906190D01*
X165336904Y-33382380D02*
X165336904Y-32382380D01*
X165717857Y-32382380D01*
X165813095Y-32430000D01*
X165860714Y-32477619D01*
X165908333Y-32572857D01*
X165908333Y-32715714D01*
X165860714Y-32810952D01*
X165813095Y-32858571D01*
X165717857Y-32906190D01*
X165336904Y-32906190D01*
X166860714Y-33382380D02*
X166289285Y-33382380D01*
X166575000Y-33382380D02*
X166575000Y-32382380D01*
X166479761Y-32525238D01*
X166384523Y-32620476D01*
X166289285Y-32668095D01*
%TO.C,R16*%
X125652380Y-42742857D02*
X125176190Y-43076190D01*
X125652380Y-43314285D02*
X124652380Y-43314285D01*
X124652380Y-42933333D01*
X124700000Y-42838095D01*
X124747619Y-42790476D01*
X124842857Y-42742857D01*
X124985714Y-42742857D01*
X125080952Y-42790476D01*
X125128571Y-42838095D01*
X125176190Y-42933333D01*
X125176190Y-43314285D01*
X125652380Y-41790476D02*
X125652380Y-42361904D01*
X125652380Y-42076190D02*
X124652380Y-42076190D01*
X124795238Y-42171428D01*
X124890476Y-42266666D01*
X124938095Y-42361904D01*
X124652380Y-40933333D02*
X124652380Y-41123809D01*
X124700000Y-41219047D01*
X124747619Y-41266666D01*
X124890476Y-41361904D01*
X125080952Y-41409523D01*
X125461904Y-41409523D01*
X125557142Y-41361904D01*
X125604761Y-41314285D01*
X125652380Y-41219047D01*
X125652380Y-41028571D01*
X125604761Y-40933333D01*
X125557142Y-40885714D01*
X125461904Y-40838095D01*
X125223809Y-40838095D01*
X125128571Y-40885714D01*
X125080952Y-40933333D01*
X125033333Y-41028571D01*
X125033333Y-41219047D01*
X125080952Y-41314285D01*
X125128571Y-41361904D01*
X125223809Y-41409523D01*
%TO.C,R11*%
X188682380Y-51567857D02*
X188206190Y-51901190D01*
X188682380Y-52139285D02*
X187682380Y-52139285D01*
X187682380Y-51758333D01*
X187730000Y-51663095D01*
X187777619Y-51615476D01*
X187872857Y-51567857D01*
X188015714Y-51567857D01*
X188110952Y-51615476D01*
X188158571Y-51663095D01*
X188206190Y-51758333D01*
X188206190Y-52139285D01*
X188682380Y-50615476D02*
X188682380Y-51186904D01*
X188682380Y-50901190D02*
X187682380Y-50901190D01*
X187825238Y-50996428D01*
X187920476Y-51091666D01*
X187968095Y-51186904D01*
X188682380Y-49663095D02*
X188682380Y-50234523D01*
X188682380Y-49948809D02*
X187682380Y-49948809D01*
X187825238Y-50044047D01*
X187920476Y-50139285D01*
X187968095Y-50234523D01*
D13*
%TO.C,R5*%
X166312258Y-42577500D02*
X165837742Y-42577500D01*
X166312258Y-43622500D02*
X165837742Y-43622500D01*
%TO.C,R14*%
X132622500Y-51362742D02*
X132622500Y-51837258D01*
X131577500Y-51362742D02*
X131577500Y-51837258D01*
%TO.C,J6*%
X172330000Y-53430000D02*
X171000000Y-53430000D01*
X172330000Y-48230000D02*
X169670000Y-48230000D01*
X169670000Y-50830000D02*
X169670000Y-48230000D01*
X172330000Y-52100000D02*
X172330000Y-53430000D01*
X172330000Y-50830000D02*
X169670000Y-50830000D01*
X172330000Y-50830000D02*
X172330000Y-48230000D01*
%TO.C,U1*%
X136100000Y-42250000D02*
X137100000Y-42250000D01*
X136100000Y-61810000D02*
X154100000Y-61810000D01*
X154100000Y-43000000D02*
X154100000Y-42250000D01*
X136100000Y-43000000D02*
X136100000Y-42250000D01*
X154100000Y-42250000D02*
X153100000Y-42250000D01*
%TO.C,R8*%
X177577500Y-50687742D02*
X177577500Y-51162258D01*
X178622500Y-50687742D02*
X178622500Y-51162258D01*
%TO.C,R9*%
X180477500Y-50687742D02*
X180477500Y-51162258D01*
X181522500Y-50687742D02*
X181522500Y-51162258D01*
%TO.C,R3*%
X166312258Y-36777500D02*
X165837742Y-36777500D01*
X166312258Y-37822500D02*
X165837742Y-37822500D01*
%TO.C,R17*%
X149322500Y-35137258D02*
X149322500Y-34662742D01*
X148277500Y-35137258D02*
X148277500Y-34662742D01*
%TO.C,R18*%
X152077500Y-35137258D02*
X152077500Y-34662742D01*
X153122500Y-35137258D02*
X153122500Y-34662742D01*
%TO.C,U5*%
X131811000Y-40711000D02*
X131811000Y-40871005D01*
X133589000Y-42489000D02*
X133199999Y-42489000D01*
X132011000Y-42489000D02*
X131811000Y-42489000D01*
X131811000Y-42328995D02*
X131811000Y-42489000D01*
X133589000Y-40711000D02*
X133589000Y-40911000D01*
X133589000Y-40711000D02*
X133428995Y-40711000D01*
X132011000Y-40711000D02*
X131811000Y-40711000D01*
X133589000Y-42099999D02*
X133589000Y-42489000D01*
%TO.C,J4*%
X181670000Y-58495000D02*
X181670000Y-61095000D01*
X181670000Y-55895000D02*
X183000000Y-55895000D01*
X181670000Y-58495000D02*
X184330000Y-58495000D01*
X181670000Y-61095000D02*
X184330000Y-61095000D01*
X184330000Y-58495000D02*
X184330000Y-61095000D01*
X181670000Y-57225000D02*
X181670000Y-55895000D01*
%TO.C,R15*%
X133137258Y-44322500D02*
X132662742Y-44322500D01*
X133137258Y-43277500D02*
X132662742Y-43277500D01*
%TO.C,D1*%
X122265000Y-42100000D02*
X122265000Y-44385000D01*
X123735000Y-44385000D02*
X123735000Y-42100000D01*
X122265000Y-44385000D02*
X123735000Y-44385000D01*
D14*
%TO.C,IC3*%
X124105000Y-58760000D02*
X124105000Y-58760000D01*
D15*
X123250000Y-54381000D02*
X129750000Y-54381000D01*
D14*
X124303000Y-58760000D02*
X124303000Y-58760000D01*
X124105000Y-58760000D02*
G75*
G03*
X124303000Y-58760000I99000J0D01*
G01*
X124303000Y-58760000D02*
G75*
G03*
X124105000Y-58760000I-99000J0D01*
G01*
D13*
%TO.C,U4*%
X142300000Y-39300000D02*
X141939900Y-39300000D01*
X142300000Y-38689900D02*
X142300000Y-39300000D01*
X142300000Y-34300000D02*
X141939900Y-34300000D01*
X135300000Y-39300000D02*
X135660100Y-39300000D01*
X135300000Y-34300000D02*
X135660100Y-34300000D01*
X135300000Y-34910100D02*
X135300000Y-34300000D01*
X142300000Y-34910100D02*
X142300000Y-34300000D01*
X135300000Y-38689900D02*
X135300000Y-39300000D01*
D16*
X136678100Y-39848000D02*
G75*
G03*
X136678100Y-39848000I-125000J0D01*
G01*
D13*
%TO.C,R13*%
X132822500Y-34162742D02*
X132822500Y-34637258D01*
X131777500Y-34162742D02*
X131777500Y-34637258D01*
%TO.C,J3*%
X158770000Y-41700000D02*
X158770000Y-40370000D01*
X158770000Y-45570000D02*
X161430000Y-45570000D01*
X158770000Y-42970000D02*
X161430000Y-42970000D01*
X158770000Y-42970000D02*
X158770000Y-45570000D01*
X161430000Y-42970000D02*
X161430000Y-45570000D01*
X158770000Y-40370000D02*
X160100000Y-40370000D01*
%TO.C,R2*%
X166312258Y-34922500D02*
X165837742Y-34922500D01*
X166312258Y-33877500D02*
X165837742Y-33877500D01*
%TO.C,J5*%
X137430000Y-28470000D02*
X137430000Y-28530000D01*
X134770000Y-28470000D02*
X137430000Y-28470000D01*
X134770000Y-28530000D02*
X137430000Y-28530000D01*
X134770000Y-28470000D02*
X134770000Y-28530000D01*
X134770000Y-27200000D02*
X134770000Y-25870000D01*
X134770000Y-25870000D02*
X136100000Y-25870000D01*
%TO.C,R7*%
X174677500Y-50687742D02*
X174677500Y-51162258D01*
X175722500Y-50687742D02*
X175722500Y-51162258D01*
D17*
%TO.C,U3*%
X173550000Y-22340000D02*
X172300000Y-22340000D01*
X171050000Y-23810000D02*
X171050000Y-45950000D01*
X173550000Y-45950000D02*
X173550000Y-22340000D01*
X196450000Y-23810000D02*
X196450000Y-35790000D01*
X198950000Y-35790000D02*
X198950000Y-22340000D01*
X196450000Y-35790000D02*
X198950000Y-35790000D01*
X198950000Y-22340000D02*
X197700000Y-22340000D01*
X171050000Y-45950000D02*
X173550000Y-45950000D01*
D13*
%TO.C,R6*%
X166312258Y-45477500D02*
X165837742Y-45477500D01*
X166312258Y-46522500D02*
X165837742Y-46522500D01*
%TO.C,R10*%
X183377500Y-50687742D02*
X183377500Y-51162258D01*
X184422500Y-50687742D02*
X184422500Y-51162258D01*
D10*
%TO.C,U2*%
X126025000Y-33025000D02*
X126325000Y-33025000D01*
X126025000Y-33025000D02*
X126025000Y-36375000D01*
X126025000Y-36375000D02*
X126325000Y-36375000D01*
X129375000Y-33025000D02*
X129150000Y-33025000D01*
X129375000Y-33025000D02*
X129375000Y-36375000D01*
X129150000Y-33025000D02*
X129150000Y-31800000D01*
X129375000Y-36375000D02*
X129075000Y-36375000D01*
D13*
%TO.C,R12*%
X140722500Y-28937258D02*
X140722500Y-28462742D01*
X139677500Y-28937258D02*
X139677500Y-28462742D01*
D15*
%TO.C,J2*%
X129450000Y-28900000D02*
X129450000Y-28900000D01*
X132150000Y-22800000D02*
X124100000Y-22800000D01*
X129450000Y-28800000D02*
X129450000Y-28800000D01*
X129450000Y-28800000D02*
G75*
G03*
X129450000Y-28900000I0J-50000D01*
G01*
X129450000Y-28900000D02*
G75*
G03*
X129450000Y-28800000I0J50000D01*
G01*
%TO.C,J1*%
X158275000Y-27000000D02*
X156200000Y-27000000D01*
X158275000Y-22800000D02*
X143125000Y-22800000D01*
X156200000Y-27000000D02*
X158275000Y-27000000D01*
D17*
X155100000Y-29200000D02*
X155100000Y-29200000D01*
D15*
X158275000Y-22800000D02*
X158275000Y-22800000D01*
X145200000Y-27000000D02*
X143125000Y-27000000D01*
X143125000Y-27000000D02*
X145200000Y-27000000D01*
X143125000Y-27000000D02*
X143125000Y-27000000D01*
X156200000Y-27000000D02*
X156200000Y-27000000D01*
D17*
X155100000Y-29100000D02*
X155100000Y-29100000D01*
D15*
X158275000Y-27000000D02*
X158275000Y-27000000D01*
X143125000Y-22800000D02*
X158275000Y-22800000D01*
X145200000Y-27000000D02*
X145200000Y-27000000D01*
X143125000Y-22800000D02*
X143125000Y-22800000D01*
D17*
X155100000Y-29100000D02*
X155100000Y-29100000D01*
X155100000Y-29100000D02*
G75*
G03*
X155100000Y-29200000I0J-50000D01*
G01*
X155100000Y-29200000D02*
G75*
G03*
X155100000Y-29100000I0J50000D01*
G01*
X155100000Y-29100000D02*
G75*
G03*
X155100000Y-29200000I0J-50000D01*
G01*
D13*
%TO.C,R4*%
X166312258Y-39677500D02*
X165837742Y-39677500D01*
X166312258Y-40722500D02*
X165837742Y-40722500D01*
%TO.C,R1*%
X166312258Y-32022500D02*
X165837742Y-32022500D01*
X166312258Y-30977500D02*
X165837742Y-30977500D01*
%TO.C,R16*%
X123462742Y-44777500D02*
X123937258Y-44777500D01*
X123462742Y-45822500D02*
X123937258Y-45822500D01*
%TO.C,R11*%
X186277500Y-50687742D02*
X186277500Y-51162258D01*
X187322500Y-50687742D02*
X187322500Y-51162258D01*
%TD*%
M02*
