%TF.GenerationSoftware,KiCad,Pcbnew,(6.0.8-1)-1*%
%TF.CreationDate,2022-11-08T13:41:34-07:00*%
%TF.ProjectId,AirU,41697255-2e6b-4696-9361-645f70636258,rev?*%
%TF.SameCoordinates,Original*%
%TF.FileFunction,Copper,L2,Bot*%
%TF.FilePolarity,Positive*%
%FSLAX46Y46*%
G04 Gerber Fmt 4.6, Leading zero omitted, Abs format (unit mm)*
G04 Created by KiCad (PCBNEW (6.0.8-1)-1) date 2022-11-08 13:41:34*
%MOMM*%
%LPD*%
G01*
G04 APERTURE LIST*
%TA.AperFunction,ComponentPad*%
%ADD10R,1.700000X1.700000*%
%TD*%
%TA.AperFunction,ComponentPad*%
%ADD11O,1.700000X1.700000*%
%TD*%
%TA.AperFunction,ComponentPad*%
%ADD12C,4.700000*%
%TD*%
%TA.AperFunction,ComponentPad*%
%ADD13R,1.800000X1.800000*%
%TD*%
%TA.AperFunction,ComponentPad*%
%ADD14C,1.800000*%
%TD*%
%TA.AperFunction,ViaPad*%
%ADD15C,0.800000*%
%TD*%
%TA.AperFunction,Conductor*%
%ADD16C,0.500000*%
%TD*%
%TA.AperFunction,Conductor*%
%ADD17C,0.250000*%
%TD*%
%TA.AperFunction,Conductor*%
%ADD18C,0.200000*%
%TD*%
G04 APERTURE END LIST*
D10*
%TO.P,J6,1,Pin_1*%
%TO.N,/U0TXD*%
X171000000Y-52100000D03*
D11*
%TO.P,J6,2,Pin_2*%
%TO.N,/U0RXD*%
X171000000Y-49560000D03*
%TD*%
D12*
%TO.P,REF\u002A\u002A,1*%
%TO.N,N/C*%
X194600000Y-57100000D03*
%TD*%
D10*
%TO.P,J4,1,Pin_1*%
%TO.N,VDD*%
X183000000Y-57225000D03*
D11*
%TO.P,J4,2,Pin_2*%
%TO.N,GND*%
X183000000Y-59765000D03*
%TD*%
D10*
%TO.P,J3,1,Pin_1*%
%TO.N,/GPIO3*%
X160100000Y-41700000D03*
D11*
%TO.P,J3,2,Pin_2*%
%TO.N,/GPIO20*%
X160100000Y-44240000D03*
%TD*%
D10*
%TO.P,J5,1,Pin_1*%
%TO.N,VCC*%
X136100000Y-27200000D03*
%TD*%
D13*
%TO.P,U3,1,Vin*%
%TO.N,VDD*%
X172300000Y-23810000D03*
D14*
%TO.P,U3,2,GND*%
%TO.N,GND*%
X172300000Y-26350000D03*
%TO.P,U3,3,EN*%
%TO.N,VDD*%
X172300000Y-28890000D03*
%TO.P,U3,4,G0*%
%TO.N,/LORA_DIO0*%
X172300000Y-31430000D03*
%TO.P,U3,5,SCK*%
%TO.N,/LORA_SCLK*%
X172300000Y-33970000D03*
%TO.P,U3,6,MISO*%
%TO.N,/LORA_MISO*%
X172300000Y-36510000D03*
%TO.P,U3,7,MOSI*%
%TO.N,/LORA_MOSI*%
X172300000Y-39050000D03*
%TO.P,U3,8,CS*%
%TO.N,/LORA_NSS*%
X172300000Y-41590000D03*
%TO.P,U3,9,RST*%
%TO.N,/LORA_RST*%
X172300000Y-44130000D03*
D13*
%TO.P,U3,10,G1*%
%TO.N,/LORA_DIO1*%
X197700000Y-23810000D03*
D14*
%TO.P,U3,11,G2*%
%TO.N,/LORA_DIO2*%
X197700000Y-26350000D03*
%TO.P,U3,12,G3*%
%TO.N,/LORA_DIO3*%
X197700000Y-28890000D03*
%TO.P,U3,13,G4*%
%TO.N,/LORA_DIO4*%
X197700000Y-31430000D03*
%TO.P,U3,14,G5*%
%TO.N,/LORA_DIO5*%
X197700000Y-33970000D03*
%TD*%
D15*
%TO.N,GND*%
X125500000Y-55900000D03*
X124600000Y-43900000D03*
%TO.N,VDD*%
X146500000Y-36900000D03*
X129800000Y-36900000D03*
X126800000Y-56100000D03*
X152400000Y-57700000D03*
X134700000Y-42700000D03*
X127200000Y-38600000D03*
X126200000Y-46600000D03*
%TO.N,VCC*%
X154200000Y-31900000D03*
X130800000Y-49400000D03*
X134600000Y-31900000D03*
X137400000Y-29100000D03*
X129600000Y-39800000D03*
%TO.N,/GPIO5*%
X158300000Y-36700000D03*
X156800000Y-55200000D03*
%TO.N,/GPIO16*%
X155700000Y-57800000D03*
X155700000Y-50200000D03*
%TO.N,/GPIO17*%
X162400000Y-48900000D03*
X180400000Y-55300000D03*
%TO.N,/GPIO18*%
X134100000Y-47600000D03*
X162700000Y-47700000D03*
X184200000Y-54400000D03*
X138200000Y-47600000D03*
%TO.N,/GPIO19*%
X133100000Y-46200000D03*
X130900000Y-43700000D03*
X138212299Y-46212299D03*
X130316880Y-41831801D03*
%TO.N,/GPIO46*%
X150800000Y-40600000D03*
X150300000Y-34800000D03*
%TO.N,/GPIO9*%
X144500000Y-38100000D03*
X149500000Y-40700000D03*
%TO.N,/GPIO10*%
X147000000Y-40600000D03*
X137900000Y-38100000D03*
%TO.N,/GPIO48*%
X149700000Y-30800000D03*
X145100000Y-31050500D03*
%TO.N,/GPIO45*%
X154100000Y-34800000D03*
X152300000Y-43849502D03*
%TO.N,/GPIO36*%
X135800000Y-39750500D03*
X138200000Y-45200000D03*
%TO.N,/U0RXD*%
X147100000Y-55200000D03*
X163100000Y-51600000D03*
X134424500Y-54100000D03*
X127475500Y-40100000D03*
%TO.N,/U0TXD*%
X146600000Y-59200000D03*
X164600000Y-52700000D03*
X128300000Y-46024500D03*
X128600000Y-40300000D03*
%TO.N,/D+*%
X128700000Y-31000000D03*
X127399500Y-29200000D03*
%TO.N,/GPIO8*%
X162600000Y-46400000D03*
X136500000Y-32900000D03*
%TO.N,Net-(R14-Pad1)*%
X139700000Y-40700000D03*
X133500000Y-50800000D03*
%TD*%
D16*
%TO.N,GND*%
X125500000Y-47400000D02*
X125000000Y-46900000D01*
X125000000Y-46900000D02*
X124600000Y-46500000D01*
X125500000Y-55900000D02*
X125500000Y-47400000D01*
X124600000Y-46500000D02*
X124600000Y-43900000D01*
%TO.N,VDD*%
X132400000Y-37100000D02*
X132400000Y-36900000D01*
X152400000Y-57700000D02*
X128400000Y-57700000D01*
X128400000Y-57700000D02*
X126800000Y-56100000D01*
X134800000Y-37200000D02*
X134800000Y-42400000D01*
X132400000Y-36900000D02*
X135100000Y-36900000D01*
X135100000Y-36900000D02*
X146500000Y-36900000D01*
X130900000Y-36900000D02*
X129800000Y-36900000D01*
X134800000Y-42400000D02*
X134800000Y-42600000D01*
X127200000Y-38600000D02*
X130900000Y-38600000D01*
X127200000Y-38600000D02*
X126200000Y-39600000D01*
X126200000Y-39600000D02*
X126200000Y-46600000D01*
X130900000Y-38600000D02*
X132400000Y-37100000D01*
X130900000Y-36900000D02*
X132400000Y-36900000D01*
X135100000Y-36900000D02*
X134800000Y-37200000D01*
X134800000Y-42600000D02*
X134700000Y-42700000D01*
%TO.N,VCC*%
X137400000Y-29100000D02*
X137400000Y-31800000D01*
X137500000Y-31900000D02*
X154200000Y-31900000D01*
X129465880Y-39934120D02*
X129465880Y-48065880D01*
X134600000Y-31900000D02*
X137500000Y-31900000D01*
X137400000Y-31800000D02*
X137500000Y-31900000D01*
X129465880Y-48065880D02*
X130800000Y-49400000D01*
X129600000Y-39800000D02*
X129465880Y-39934120D01*
D17*
%TO.N,/GPIO5*%
X158300000Y-36800000D02*
X157600000Y-37500000D01*
X157600000Y-37500000D02*
X157600000Y-54400000D01*
X157600000Y-54400000D02*
X156800000Y-55200000D01*
X158300000Y-36700000D02*
X158300000Y-36800000D01*
%TO.N,/GPIO16*%
X155700000Y-57800000D02*
X155700000Y-50200000D01*
%TO.N,/GPIO17*%
X180400000Y-55300000D02*
X168800000Y-55300000D01*
X162700000Y-49200000D02*
X162400000Y-48900000D01*
X168800000Y-55300000D02*
X162700000Y-49200000D01*
%TO.N,/GPIO18*%
X169400000Y-54400000D02*
X162800000Y-47800000D01*
X162800000Y-47800000D02*
X162700000Y-47700000D01*
X184200000Y-54400000D02*
X169400000Y-54400000D01*
X134100000Y-47600000D02*
X138200000Y-47600000D01*
%TO.N,/GPIO19*%
X138200000Y-46200000D02*
X138212299Y-46212299D01*
X130316880Y-43216880D02*
X130800000Y-43700000D01*
X130800000Y-43700000D02*
X130900000Y-43700000D01*
X130316880Y-41831801D02*
X130316880Y-43216880D01*
X133100000Y-46200000D02*
X138200000Y-46200000D01*
%TO.N,/GPIO46*%
X150800000Y-40600000D02*
X150800000Y-35300000D01*
X150800000Y-35300000D02*
X150300000Y-34800000D01*
%TO.N,/GPIO9*%
X149500000Y-40200000D02*
X149500000Y-40700000D01*
X144500000Y-38100000D02*
X147400000Y-38100000D01*
X148200000Y-38900000D02*
X149500000Y-40200000D01*
X147400000Y-38100000D02*
X148200000Y-38900000D01*
%TO.N,/GPIO10*%
X137900000Y-38100000D02*
X140900000Y-38100000D01*
X140900000Y-38100000D02*
X142400000Y-39600000D01*
X143400000Y-40600000D02*
X147000000Y-40600000D01*
X142400000Y-39600000D02*
X143400000Y-40600000D01*
%TO.N,/GPIO48*%
X149700000Y-30800000D02*
X145350500Y-30800000D01*
X145350500Y-30800000D02*
X145100000Y-31050500D01*
%TO.N,/GPIO45*%
X154100000Y-42049502D02*
X152300000Y-43849502D01*
X154100000Y-34800000D02*
X154100000Y-42049502D01*
%TO.N,/GPIO36*%
X138200000Y-42150500D02*
X138200000Y-45200000D01*
X135800000Y-39750500D02*
X138200000Y-42150500D01*
%TO.N,/U0RXD*%
X147100000Y-55200000D02*
X152000000Y-55200000D01*
X157200000Y-59100000D02*
X161000000Y-55300000D01*
X161000000Y-55300000D02*
X161000000Y-53200000D01*
X152000000Y-55200000D02*
X155900000Y-59100000D01*
X134424500Y-54100000D02*
X127475500Y-47151000D01*
X162600000Y-51600000D02*
X163100000Y-51600000D01*
X161000000Y-53200000D02*
X162600000Y-51600000D01*
X155900000Y-59100000D02*
X157200000Y-59100000D01*
X127475500Y-47151000D02*
X127475500Y-40100000D01*
%TO.N,/U0TXD*%
X157400000Y-59900000D02*
X164600000Y-52700000D01*
X128300000Y-46024500D02*
X128300000Y-40600000D01*
X147200000Y-59900000D02*
X157400000Y-59900000D01*
X146600000Y-59200000D02*
X147200000Y-59800000D01*
X128300000Y-40600000D02*
X128600000Y-40300000D01*
X147200000Y-59800000D02*
X147200000Y-59900000D01*
D18*
%TO.N,/D+*%
X127399500Y-29699500D02*
X127399500Y-29200000D01*
X128700000Y-31000000D02*
X127399500Y-29699500D01*
D17*
%TO.N,/GPIO8*%
X162700000Y-39400000D02*
X162700000Y-46300000D01*
X156500000Y-33200000D02*
X162700000Y-39400000D01*
X136500000Y-32900000D02*
X136800000Y-33200000D01*
X162700000Y-46300000D02*
X162600000Y-46400000D01*
X136800000Y-33200000D02*
X156500000Y-33200000D01*
%TO.N,Net-(R14-Pad1)*%
X139700000Y-48700000D02*
X139700000Y-40700000D01*
X133500000Y-50800000D02*
X137600000Y-50800000D01*
X137600000Y-50800000D02*
X139700000Y-48700000D01*
%TD*%
M02*
